<svg width="38" height="37" viewBox="0 0 38 37" fill="none" xmlns="http://www.w3.org/2000/svg">
<path d="M35.1438 9.21381C33.4894 6.37955 31.2453 4.13547 28.411 2.48116C25.5761 0.826942 22.4815 0 19.1247 0C15.7682 0 12.6727 0.826942 9.8383 2.48116C7.00378 4.13522 4.75971 6.37929 3.10532 9.21381C1.45084 12.0485 0.623901 15.1441 0.623901 18.5003C0.623901 21.8566 1.4511 24.9517 3.10507 27.7866C4.75937 30.6208 7.00345 32.8649 9.83797 34.5194C12.6727 36.1735 15.768 37.0005 19.1243 37.0005C22.4807 37.0005 25.5764 36.1735 28.4109 34.5194C31.2452 32.8655 33.4892 30.6208 35.1434 27.7866C36.7974 24.952 37.6243 21.8565 37.6243 18.5003C37.6244 15.1437 36.7974 12.0481 35.1438 9.21381ZM19.1244 2.698C23.1069 2.698 26.5839 4.01482 29.5547 6.64836L29.2536 7.06963C29.1332 7.23855 28.8321 7.56339 28.3505 8.04541C27.8688 8.52701 27.3428 8.98499 26.7728 9.4185C26.2022 9.85218 25.4279 10.3459 24.4479 10.9C23.4682 11.4541 22.4244 11.9402 21.3162 12.3576C19.4695 8.95276 17.4944 5.88546 15.3906 3.15556C16.6595 2.85047 17.904 2.698 19.1244 2.698ZM6.74299 8.69551C8.28457 6.75273 10.1632 5.25898 12.3796 4.21529C14.3709 6.86503 16.33 9.90044 18.2572 13.3209C13.3752 14.6057 8.50942 15.2481 3.65948 15.2478C4.17365 12.823 5.2014 10.6387 6.74299 8.69551ZM4.38189 24.1977C3.67518 22.3911 3.3219 20.4918 3.3219 18.5003C3.3219 18.2753 3.33017 18.1067 3.34604 17.9944C9.15977 17.9944 14.5639 17.2478 19.5583 15.754C20.0723 16.7496 20.4978 17.6409 20.8351 18.428C20.77 18.4601 20.6664 18.496 20.5218 18.5363C20.3768 18.5765 20.2727 18.6043 20.2079 18.6206L19.3168 18.9337C18.7063 19.1586 17.9071 19.5441 16.9198 20.0899C15.9323 20.6364 14.8845 21.2864 13.7763 22.0414C12.6682 22.7965 11.5239 23.7961 10.3437 25.0411C9.16332 26.2856 8.17168 27.6222 7.3687 29.0514C6.08395 27.6222 5.08843 26.0038 4.38189 24.1977ZM19.1244 34.3028C15.3664 34.3028 12.0101 33.0982 9.05507 30.6895L9.41644 30.9546C9.97845 29.7177 10.8054 28.5292 11.8977 27.3892C12.9898 26.2493 14.0416 25.3294 15.0533 24.6307C16.065 23.9326 17.165 23.2742 18.3536 22.6551C19.5419 22.0373 20.3525 21.6434 20.7865 21.4754C21.2202 21.3068 21.5655 21.174 21.8224 21.0774L21.8703 21.0532H21.9189C23.4922 25.1804 24.6169 29.1795 25.2911 33.0498C23.2997 33.8852 21.2445 34.3025 19.1244 34.3028ZM32.4221 27.0399C31.2337 28.8789 29.7479 30.4008 27.9658 31.6048C27.3069 27.9113 26.2796 24.1449 24.8821 20.307C28.0779 19.8086 31.3619 20.0419 34.7344 21.0051C34.381 23.1892 33.61 25.2012 32.4221 27.0399ZM34.6859 18.2835C34.5253 18.2516 34.3243 18.2152 34.0835 18.1753C33.8427 18.1354 33.5494 18.0869 33.204 18.0307C32.8592 17.9745 32.4732 17.9225 32.048 17.8742C31.6223 17.826 31.1687 17.782 30.6865 17.7418C30.2049 17.7015 29.6909 17.6697 29.1452 17.6454C28.5985 17.6214 28.0448 17.6093 27.4826 17.6093C26.921 17.6093 26.3303 17.6256 25.7124 17.6575C25.0942 17.6891 24.4962 17.746 23.9182 17.8261C23.8697 17.7457 23.8096 17.6132 23.7374 17.4284C23.6652 17.2439 23.6126 17.1031 23.5814 17.0068C23.2759 16.3323 22.9225 15.5694 22.5206 14.7185C23.6288 14.2685 24.685 13.7508 25.6892 13.1645C26.6926 12.5782 27.495 12.0566 28.0976 11.599C28.6999 11.1408 29.27 10.655 29.8078 10.1412C30.3461 9.62741 30.6949 9.27026 30.856 9.06945C31.0168 8.8683 31.1693 8.67171 31.3137 8.47926L31.3379 8.45496C33.6824 11.3135 34.8793 14.6055 34.9269 18.3316L34.6859 18.2835Z" fill="#F065A7"/>
</svg>
