<svg width="30" height="37" viewBox="0 0 30 37" fill="none" xmlns="http://www.w3.org/2000/svg">
<path d="M29.3422 15.5152C29.4795 14.6464 29.5651 13.6938 29.5867 12.6256C29.5784 8.0455 27.3859 6.42483 26.964 5.66505C27.5854 2.19472 26.8611 0.616185 26.5243 0.0758067C25.282 -0.365154 22.2021 1.21393 20.5192 2.32553C17.7755 1.52238 11.9772 1.60077 9.80281 2.53341C5.79087 -0.339334 3.66894 0.0986897 3.66894 0.0986897C3.66894 0.0986897 2.29712 2.55861 3.30629 6.15734C1.98627 7.83947 1.00238 9.02877 1.00238 12.1834C1.00238 12.9389 1.0493 13.6528 1.12893 14.3397C2.26573 20.317 7.00197 22.8956 11.6543 23.3403C10.9542 23.8722 10.1137 24.8789 9.99747 26.0454C9.11779 26.6142 7.3483 26.8022 5.97231 26.3696C4.04434 25.7604 3.30629 21.9425 0.419092 22.4871C-0.205628 22.604 -0.0814726 23.0161 0.459524 23.3673C1.33913 23.9379 2.16755 24.6471 2.80611 26.1647C3.29655 27.3299 4.32806 29.4102 7.58935 29.4102C8.88402 29.4102 9.79083 29.2572 9.79083 29.2572C9.79083 29.2572 9.81549 32.2263 9.81549 33.3843C9.81549 34.7169 8.01701 35.0911 8.01701 35.7304C8.01701 35.9847 8.61228 36.0088 9.09066 36.0088C10.036 36.0088 12.0031 35.2213 12.0031 33.8362C12.0031 32.7356 12.0206 29.0369 12.0206 28.3892C12.0206 26.9739 12.7791 26.5233 12.7791 26.5233C12.7791 26.5233 12.8719 34.0783 12.5965 35.0912C12.2736 36.2823 11.6886 36.1131 11.6886 36.6432C11.6886 37.4343 14.0534 36.8366 14.8378 35.105C15.4445 33.7525 15.1728 26.3437 15.1728 26.3437L15.8054 26.3299C15.8054 26.3299 15.8127 29.7231 15.7909 31.2733C15.7681 32.8789 15.6024 34.9086 16.5561 35.8666C17.182 36.4967 19.0997 37.6023 19.0997 36.5919C19.0997 36.0064 17.7568 35.5225 17.7568 33.9362V26.6285C18.5726 26.6285 18.7412 29.0306 18.7412 29.0306L19.0353 33.4933C19.0353 33.4933 18.84 35.1218 20.7945 35.8014C21.4845 36.043 22.9605 36.1088 23.0297 35.7031C23.0991 35.2965 21.2524 34.6952 21.2349 33.4348C21.2254 32.6671 21.2693 32.2178 21.2693 28.8787C21.2693 25.5415 20.821 24.307 19.2587 23.3232C23.789 22.8583 28.4945 20.8351 29.3422 15.5152Z" fill="#F065A7"/>
</svg>
