<svg width="54" height="54" viewBox="0 0 54 54" fill="none" xmlns="http://www.w3.org/2000/svg">
<path d="M26.5133 12.8928C18.9972 12.8928 12.9124 18.9843 12.9124 26.4938C12.9124 34.0098 19.0038 40.0947 26.5133 40.0947C34.0294 40.0947 40.1142 34.0032 40.1142 26.4938C40.1142 18.9777 34.0227 12.8928 26.5133 12.8928ZM26.5133 35.3218C21.6344 35.3218 17.6853 31.3705 17.6853 26.4938C17.6853 21.617 21.6366 17.6657 26.5133 17.6657C31.39 17.6657 35.3413 21.617 35.3413 26.4938C35.3435 31.3705 31.3922 35.3218 26.5133 35.3218Z" fill="white"/>
<path d="M37.4329 0.166504C32.5562 -0.0609885 20.477 -0.0499452 15.5959 0.166504C11.3066 0.367492 7.5232 1.40335 4.47304 4.45352C-0.624549 9.55111 0.0270059 16.42 0.0270059 26.4937C0.0270059 36.8038 -0.547246 43.5137 4.47304 48.534C9.59051 53.6492 16.5588 52.98 26.5133 52.98C36.7261 52.98 40.2511 52.9866 43.8623 51.5886C48.7722 49.6825 52.4783 45.2939 52.8405 37.4112C53.0702 32.5322 53.057 20.4553 52.8405 15.5741C52.4032 6.26904 47.4094 0.625905 37.4329 0.166504ZM45.1522 45.1614C41.8105 48.5031 37.1745 48.2049 26.4492 48.2049C15.4059 48.2049 10.9775 48.3683 7.74628 45.1282C4.02468 41.4243 4.69833 35.4764 4.69833 26.4584C4.69833 14.2556 3.44601 5.46729 15.693 4.84003C18.5069 4.74064 19.3351 4.70751 26.4183 4.70751L26.5177 4.77377C38.2876 4.77377 47.5221 3.54134 48.0764 15.7862C48.2023 18.5801 48.231 19.4194 48.231 26.4915C48.2288 37.4067 48.4365 41.8616 45.1522 45.1614Z" fill="white"/>
<path d="M40.6532 15.5343C42.4085 15.5343 43.8314 14.1113 43.8314 12.356C43.8314 10.6007 42.4085 9.17773 40.6532 9.17773C38.8978 9.17773 37.4749 10.6007 37.4749 12.356C37.4749 14.1113 38.8978 15.5343 40.6532 15.5343Z" fill="white"/>
</svg>
