<svg width="40" height="37" viewBox="0 0 40 37" fill="none" xmlns="http://www.w3.org/2000/svg">
<path d="M5.17559 0C2.13469 0 0.146484 1.94459 0.146484 4.50049C0.146484 6.99995 2.07546 9 5.05891 9H5.11662C8.217 9 10.1465 6.99995 10.1465 4.50049C10.0885 1.94459 8.217 0 5.17559 0Z" fill="#F065A7"/>
<path d="M1.14648 12H9.14648V37H1.14648V12Z" fill="#F065A7"/>
<path d="M29.7177 11C25.2995 11 22.3368 15.2804 22.3368 15.2804V11.5962H14.1465V37H22.3363V22.8135C22.3363 22.0541 22.3897 21.2958 22.6061 20.7527C23.1982 19.2362 24.5456 17.665 26.8082 17.665C29.7718 17.665 30.9571 19.9947 30.9571 23.4098V37H39.1465V22.4339C39.1465 14.631 35.1058 11 29.7177 11Z" fill="#F065A7"/>
</svg>
