<svg width="53" height="43" viewBox="0 0 53 43" fill="none" xmlns="http://www.w3.org/2000/svg">
<path d="M47.5542 10.7235C49.7096 9.19538 51.5226 7.28795 53 5.09164V5.08944C51.028 5.95164 48.93 6.52497 46.7394 6.80282C48.9919 5.4599 50.7122 3.34959 51.5204 0.807077C49.4203 2.05738 47.1015 2.93944 44.6304 3.43338C42.6363 1.31205 39.7942 0 36.6937 0C30.6782 0 25.8353 4.87554 25.8353 10.8514C25.8353 11.7114 25.9082 12.5384 26.087 13.3256C17.055 12.8846 9.06079 8.56251 3.69012 1.97579C2.75379 3.60097 2.20171 5.4599 2.20171 7.45995C2.20171 11.2175 4.13842 14.5472 7.02912 16.4767C5.28233 16.4436 3.57087 15.9365 2.12 15.1404V15.2595C2.12 20.5319 5.88521 24.9113 10.8252 25.9213C9.93971 26.1638 8.97687 26.2785 7.9765 26.2785C7.28087 26.2785 6.57862 26.2388 5.92054 26.0933C7.32725 30.3889 11.3243 33.5488 16.0722 33.6525C12.3755 36.539 7.68058 38.2788 2.59921 38.2788C1.70925 38.2788 0.854625 38.2391 0 38.1311C4.81417 41.2293 10.5161 43 16.6685 43C35.8435 43 48.3404 27.0261 47.5542 10.7235Z" fill="white"/>
</svg>
